# xmcd
#
# Track frame offsets: 
#        150
#        11382
#        23137
#        33538
#        46003
#        59340
#        68842
#        79584
#        92068
#        102871
#        114034
#        126937
#        140355
#        152628
#        163831
#        175817
#        189590
#        199579
#        209133
#        219185
#        230447
#        243099
#        254955
#
# Disc length: 3578 seconds
#
# Revision: 1
# Processed by: cddbd v1.5.2PL0 Copyright (c) Steve Scherf et al.
# Submitted via: ExactAudioCopyFreeDBPlugin 1.0
#
DISCID=360df817
DTITLE=Various Artist - All-Time Country Favourites 1950s [CD1)
DYEAR=2008
DGENRE=Country
TTITLE0=Marty Robbins - Singing The Blues
TTITLE1=Patsy Cline - Walkin' After Midnight
TTITLE2=Elvis Presley - Baby, Let's Play House
TTITLE3=Johnny Cash - I Walk The Line
TTITLE4=Frankie Laine - Moonlight Gambler
TTITLE5=The Everly Brothers - Wake Up Little Susie
TTITLE6=Jimmie Rodgers - Kisses Sweeter Than Wine
TTITLE7=Skeets Mcdonald - Don't Let The Stars Get In Your Eyes
TTITLE8=Slim Whitman - Rose Marie
TTITLE9=Ernest Tubb - The Yellow Rose Of Texas
TTITLE10=Jim Reeves - Four Walls
TTITLE11=Bobby Helms - My Special Angel
TTITLE12=Hank Williams - Your Cheatin' Heart
TTITLE13=Stonewall Jackson - Waterloo
TTITLE14=Don Gibson - 1 Can't Stop Loving You
TTITLE15=Patti Page - Tennessee Waltz
TTITLE16=Eddy Arnold - I Wanna Play House W1Th You
TTITLE17=Webb Pierce - In The Jailhouse Now
TTITLE18=Conway Twitty - It's Only Make Believe
TTITLE19=Hank Locklin - Send Me The Pillow You Dream On
TTITLE20=George Jones - White Lightning
TTITLE21=Tennessee Ernie Ford - Sixteen Tons
TTITLE22=Ray Price - Heartaches By The Number
EXTD=
EXTT0=
EXTT1=
EXTT2=
EXTT3=
EXTT4=
EXTT5=
EXTT6=
EXTT7=
EXTT8=
EXTT9=
EXTT10=
EXTT11=
EXTT12=
EXTT13=
EXTT14=
EXTT15=
EXTT16=
EXTT17=
EXTT18=
EXTT19=
EXTT20=
EXTT21=
EXTT22=
PLAYORDER=
